<?xml version="1.0" encoding="utf-8"?>
<!-- Generator: Adobe Illustrator 23.0.2, SVG Export Plug-In . SVG Version: 6.00 Build 0)  -->
<svg version="1.1" id="Layer_1" xmlns="http://www.w3.org/2000/svg" xmlns:xlink="http://www.w3.org/1999/xlink" x="0px" y="0px"
	 viewBox="0 0 480.24 105.62" style="enable-background:new 0 0 480.24 105.62;" xml:space="preserve">
<style type="text/css">
	.st0{fill:#FFFFFF;}
	.st1{fill:url(#SVGID_1_);}
	.st2{fill:url(#SVGID_2_);}
</style>
<g>
	<g>
		<g>
			<path class="st0" d="M68.45,89.87c6.2,0,11.27-2.45,15.2-7.36l8.09,8.33c-6.42,7.22-13.98,10.83-22.68,10.83
				c-8.71,0-15.88-2.75-21.51-8.25c-5.63-5.5-8.45-12.44-8.45-20.82c0-8.38,2.87-15.37,8.61-20.98c5.74-5.61,12.76-8.41,21.06-8.41
				c9.27,0,17.03,3.53,23.29,10.59l-7.84,8.89c-3.99-4.96-8.95-7.44-14.88-7.44c-4.74,0-8.8,1.55-12.17,4.65
				c-3.37,3.1-5.05,7.28-5.05,12.53s1.59,9.47,4.77,12.65C60.07,88.28,63.92,89.87,68.45,89.87z"/>
		</g>
		<g>
			<path class="st0" d="M141.62,51.91c5.39,4.93,8.09,11.79,8.09,20.58c0,8.79-2.63,15.74-7.88,20.86
				c-5.26,5.12-13.27,7.68-24.05,7.68H98.45V44.51h19.97C128.5,44.51,136.23,46.98,141.62,51.91z M132.37,85.51
				c3.1-2.91,4.65-7.14,4.65-12.69c0-5.55-1.55-9.82-4.65-12.82c-3.1-2.99-7.86-4.49-14.27-4.49h-7.03v34.36h8
				C124.83,89.87,129.27,88.42,132.37,85.51z"/>
		</g>
		<g>
			<path class="st0" d="M179.87,55.43v45.6h-12.61v-45.6h-16.01V44.51h44.63v10.92H179.87z"/>
		</g>
		<g>
			<path class="st0" d="M213.7,97.72c-4.45-2.48-7.95-5.9-10.51-10.27c-2.56-4.37-3.84-9.27-3.84-14.72
				c0-5.44,1.28-10.35,3.84-14.72c2.56-4.37,6.06-7.79,10.51-10.27c4.45-2.48,9.45-3.72,15-3.72c4.1,0,7.87,0.66,11.32,1.98
				c3.45,1.32,6.39,3.27,8.81,5.86l-2.59,2.67c-4.53-4.47-10.32-6.71-17.38-6.71c-4.74,0-9.06,1.08-12.94,3.23
				c-3.88,2.16-6.93,5.13-9.14,8.93c-2.21,3.8-3.32,8.05-3.32,12.73s1.1,8.93,3.32,12.73c2.21,3.8,5.25,6.78,9.14,8.93
				c3.88,2.16,8.19,3.23,12.94,3.23c7.01,0,12.8-2.26,17.38-6.79l2.59,2.67c-2.43,2.59-5.38,4.56-8.85,5.9
				c-3.48,1.35-7.24,2.02-11.28,2.02C223.15,101.44,218.15,100.2,213.7,97.72z"/>
		</g>
		<g>
			<path class="st0" d="M259.43,44.43h4.12v52.88h32.58v3.72h-36.71V44.43z"/>
		</g>
		<g>
			<path class="st0" d="M311.34,97.68c-4.47-2.51-7.99-5.94-10.55-10.31c-2.56-4.37-3.84-9.24-3.84-14.63
				c0-5.39,1.28-10.27,3.84-14.63c2.56-4.37,6.08-7.8,10.55-10.31c4.47-2.51,9.49-3.76,15.04-3.76c5.55,0,10.56,1.24,15.04,3.72
				c4.47,2.48,7.99,5.9,10.55,10.27c2.56,4.37,3.84,9.27,3.84,14.72c0,5.44-1.28,10.35-3.84,14.72c-2.56,4.37-6.08,7.79-10.55,10.27
				c-4.47,2.48-9.49,3.72-15.04,3.72C320.82,101.44,315.81,100.18,311.34,97.68z M339.23,94.4c3.83-2.16,6.84-5.13,9.06-8.93
				c2.21-3.8,3.32-8.04,3.32-12.73S350.5,63.8,348.29,60c-2.21-3.8-5.23-6.78-9.06-8.93c-3.83-2.16-8.11-3.23-12.86-3.23
				c-4.74,0-9.04,1.08-12.9,3.23c-3.85,2.16-6.89,5.13-9.1,8.93c-2.21,3.8-3.32,8.05-3.32,12.73s1.1,8.93,3.32,12.73
				c2.21,3.8,5.24,6.78,9.1,8.93c3.85,2.16,8.15,3.23,12.9,3.23C331.12,97.63,335.4,96.56,339.23,94.4z"/>
		</g>
		<g>
			<path class="st0" d="M372.34,95.21c-3.96-4.15-5.94-10.21-5.94-18.19V44.43h4.12v32.42c0,6.95,1.59,12.16,4.77,15.6
				c3.18,3.45,7.79,5.17,13.83,5.17c5.98,0,10.56-1.72,13.75-5.17c3.18-3.45,4.77-8.65,4.77-15.6V44.43h4.12v32.58
				c0,7.98-2,14.04-5.98,18.19c-3.99,4.15-9.57,6.23-16.74,6.23C381.87,101.44,376.3,99.36,372.34,95.21z"/>
		</g>
		<g>
			<path class="st0" d="M427.77,44.43h22.4c5.88,0,11.09,1.21,15.65,3.64c4.55,2.43,8.1,5.78,10.63,10.07
				c2.53,4.29,3.8,9.15,3.8,14.59c0,5.44-1.27,10.31-3.8,14.59c-2.53,4.29-6.08,7.64-10.63,10.07c-4.56,2.43-9.77,3.64-15.65,3.64
				h-22.4V44.43z M449.84,97.31c5.23,0,9.84-1.04,13.83-3.11c3.99-2.07,7.06-4.97,9.22-8.69c2.16-3.72,3.23-7.98,3.23-12.77
				c0-4.8-1.08-9.06-3.23-12.77c-2.16-3.72-5.23-6.62-9.22-8.69c-3.99-2.07-8.6-3.11-13.83-3.11h-17.95v49.16H449.84z"/>
		</g>
	</g>
	<linearGradient id="SVGID_1_" gradientUnits="userSpaceOnUse" x1="98.4673" y1="7.4041" x2="130.4673" y2="38.63">
		<stop  offset="0" style="stop-color:#FFFFFF"/>
		<stop  offset="1" style="stop-color:#000000;stop-opacity:0"/>
	</linearGradient>
	<path class="st1" d="M118.83,11.83c-9.44-7.5-20.62-11.36-31.84-11.79v12.01c8.59,0.43,17.14,3.43,24.37,9.17
		c6.55,5.2,11.14,11.95,13.71,19.32h12.55C134.7,29.58,128.38,19.42,118.83,11.83z"/>
	<g>
		<linearGradient id="SVGID_2_" gradientUnits="userSpaceOnUse" x1="9.1392" y1="78.1224" x2="31.8489" y2="101.0901">
			<stop  offset="0" style="stop-color:#FFFFFF"/>
			<stop  offset="1" style="stop-color:#000000;stop-opacity:0"/>
		</linearGradient>
		<path class="st2" d="M0.21,71.69c1.07,10.1,6.02,19.17,13.92,25.55c6.23,5.03,13.73,7.93,21.69,8.38l0.69-11.98
			c-5.44-0.31-10.57-2.3-14.84-5.74c-5.41-4.36-8.79-10.57-9.52-17.48c-0.14-1.28-0.18-2.55-0.13-3.81h-12
			C-0.03,68.29,0.03,69.99,0.21,71.69z"/>
		<path class="st0" d="M42.02,20.63c-2.25,2.83-4.21,5.87-5.85,9.07c-10.75,0.53-20.89,5.62-27.72,14.08
			c-5.31,6.57-8.22,14.53-8.43,22.83h12c0.22-5.56,2.2-10.88,5.77-15.28c5.28-6.54,13.45-10.13,21.83-9.62l4.25,0.26l1.65-3.92
			c1.5-3.56,3.49-6.91,5.91-9.95c8.89-11.19,22.29-16.7,35.58-16.05V0.04C70.17-0.61,53.27,6.47,42.02,20.63z"/>
	</g>
</g>
</svg>
